<?xml version="1.0" encoding="UTF-8" standalone="no"?>
<svg
   width="219.17816"
   height="50"
   viewBox="0 0 219.17816 50"
   fill="none"
   version="1.1"
   id="svg136"
   sodipodi:docname="logo.svg"
   inkscape:version="1.2 (dc2aeda, 2022-05-15)"
   xmlns:inkscape="http://www.inkscape.org/namespaces/inkscape"
   xmlns:sodipodi="http://sodipodi.sourceforge.net/DTD/sodipodi-0.dtd"
   xmlns="http://www.w3.org/2000/svg"
   xmlns:svg="http://www.w3.org/2000/svg">
  <defs
     id="defs140" />
  <sodipodi:namedview
     id="namedview138"
     pagecolor="#505050"
     bordercolor="#eeeeee"
     borderopacity="1"
     inkscape:showpageshadow="0"
     inkscape:pageopacity="0"
     inkscape:pagecheckerboard="0"
     inkscape:deskcolor="#505050"
     showgrid="false"
     inkscape:zoom="3.2617801"
     inkscape:cx="141.94703"
     inkscape:cy="43.687801"
     inkscape:window-width="2560"
     inkscape:window-height="1387"
     inkscape:window-x="0"
     inkscape:window-y="25"
     inkscape:window-maximized="1"
     inkscape:current-layer="svg136" />
  <path
     d="m 17.797529,4 c 0,-2.2091379 1.770747,-4 3.955057,-4 h 11.074023 c 2.184253,0 3.955,1.7908621 3.955,4 v 9.2 c 0,2.209138 -1.770747,4 -3.955,4 H 22.148046 c -1.528966,0 -2.768506,1.253621 -2.768506,2.8 v 10 c 0,1.546379 1.23954,2.8 2.768506,2.8 h 10.678563 c 2.184253,0 3.955,1.790862 3.955,4 V 46 c 0,2.209138 -1.770747,4 -3.955,4 H 21.752586 c -2.18431,0 -3.955057,-1.790862 -3.955057,-4 v -9.2 c 0,-1.546379 -1.239483,-2.8 -2.768506,-2.8 H 3.9550115 C 1.7707184,34 0,32.209138 0,30 V 19.6 c 0,-2.209138 1.7707184,-4 3.9550115,-4 H 15.029023 c 1.529023,0 2.768506,-1.253621 2.768506,-2.8 z"
     fill="#0fb88c"
     id="path132"
     style="stroke-width:0.574713" />
  <path
     fill-rule="evenodd"
     clip-rule="evenodd"
     d="m 75.212069,37.511379 h -2.733908 c -0.567241,0 -0.833908,-0.266724 -0.833908,-0.83362 V 13.034885 c 0,-0.566896 0.266667,-0.833678 0.833908,-0.833678 h 2.733908 c 0.567241,0 0.833908,0.266782 0.833908,0.833678 v 23.642874 c 0,0.566896 -0.266667,0.83362 -0.833908,0.83362 z m 4.331609,-20.708333 h 2.734483 c 0.567241,0 0.833908,-0.266782 0.833908,-0.833678 v -2.934483 c 0,-0.566896 -0.266667,-0.833678 -0.833908,-0.833678 h -2.734483 c -0.566667,0 -0.833333,0.266782 -0.833333,0.833678 v 2.934483 c 0,0.566896 0.266666,0.833678 0.833333,0.833678 z m 0,20.708333 h 2.734483 c 0.567241,0 0.833908,-0.266724 0.833908,-0.83362 V 19.604195 c 0,-0.566896 -0.266667,-0.833678 -0.833908,-0.833678 h -2.734483 c -0.566667,0 -0.833333,0.266782 -0.833333,0.833678 v 17.073564 c 0,0.566896 0.266666,0.83362 0.833333,0.83362 z M 107.94828,16.803046 h 2.73448 c 0.56667,0 0.83391,-0.266782 0.83391,-0.833678 v -2.934483 c 0,-0.566896 -0.26724,-0.833678 -0.83391,-0.833678 h -2.73448 c -0.56667,0 -0.83391,0.266782 -0.83391,0.833678 v 2.934483 c 0,0.566896 0.26724,0.833678 0.83391,0.833678 z m 0,20.708333 h 2.73448 c 0.56667,0 0.83391,-0.266724 0.83391,-0.83362 V 19.604195 c 0,-0.566896 -0.26724,-0.833678 -0.83391,-0.833678 h -2.73448 c -0.56667,0 -0.83391,0.266782 -0.83391,0.833678 v 17.073564 c 0,0.566896 0.26724,0.83362 0.83391,0.83362 z M 214.77644,13.034885 v 7.869828 c -0.83334,-1.433908 -2.43449,-2.134196 -4.83506,-2.134196 h -3.20172 c -5.1684,0 -6.9023,2.367644 -6.9023,7.402989 v 4.034942 c 0,4.935345 1.80057,7.302931 6.9023,7.302931 h 3.20172 c 2.40057,0 4.00172,-0.700287 4.83506,-2.134195 v 1.300575 c 0,0.566896 0.26666,0.83362 0.8339,0.83362 h 2.73449 c 0.56666,0 0.83333,-0.266724 0.83333,-0.83362 V 13.034885 c 0,-0.566896 -0.26667,-0.833678 -0.83333,-0.833678 h -2.73449 c -0.56724,0 -0.8339,0.266782 -0.8339,0.833678 z m -2.60115,20.374885 h -5.33506 c -2.03448,0 -2.60115,-0.533563 -2.60115,-2.801149 v -4.901954 c 0,-2.267587 0.56667,-2.834483 2.60115,-2.834483 h 5.33506 c 1.86781,0 2.60115,0.566896 2.60115,2.834483 v 4.901954 c 0,2.234253 -0.7,2.801149 -2.60115,2.801149 z m -26.6069,4.192874 h 9.27012 c 0.56724,0 0.8339,-0.266724 0.8339,-0.833621 v -2.434368 c 0,-0.566839 -0.26666,-0.833621 -0.8339,-0.833621 h -9.17012 c -2.03448,0 -2.60115,-0.566896 -2.60115,-2.834482 v -0.666954 h 13.27184 c 0.56724,0 0.83391,-0.266782 0.83391,-0.833678 v -3.001207 c 0,-4.935288 -1.80058,-7.302931 -6.90288,-7.302931 h -4.70172 c -5.1023,0 -6.90287,2.367643 -6.90287,7.302931 v 4.035 c 0,5.035344 1.73391,7.402931 6.90287,7.402931 z M 183.06724,26.631609 V 25.76454 c 0,-2.267529 0.56667,-2.801092 2.60115,-2.801092 h 4.50172 c 2.03391,0 2.60115,0.533563 2.60115,2.801092 v 0.867069 z m -9.4,10.971035 h -9.27069 c -5.16839,0 -6.90287,-2.367587 -6.90287,-7.402931 v -4.035 c 0,-4.935288 1.80115,-7.302931 6.90287,-7.302931 h 4.70173 c 5.10229,0 6.90287,2.367643 6.90287,7.302931 v 3.001207 c 0,0.566896 -0.26667,0.833678 -0.83333,0.833678 H 161.8954 v 0.666954 c 0,2.267586 0.56724,2.834482 2.60115,2.834482 h 9.17069 c 0.56667,0 0.83333,0.266782 0.83333,0.833621 v 2.434368 c 0,0.566897 -0.26666,0.833621 -0.83333,0.833621 z M 161.8954,25.76454 v 0.867069 h 9.70403 V 25.76454 c 0,-2.267529 -0.56667,-2.801092 -2.60115,-2.801092 h -4.50173 c -2.03391,0 -2.60115,0.533563 -2.60115,2.801092 z m -13.96839,-6.902758 h -2.53448 c -2.40115,0 -4.00173,0.73362 -4.83506,2.167528 v -1.33385 c 0,-0.566897 -0.26724,-0.833678 -0.83391,-0.833678 h -2.73448 c -0.56667,0 -0.83391,0.266781 -0.83391,0.833678 v 17.073563 c 0,0.566897 0.26724,0.833621 0.83391,0.833621 h 2.73448 c 0.56667,0 0.83391,-0.266724 0.83391,-0.833621 V 25.797931 c 0,-2.267586 0.7,-2.834483 2.60058,-2.834483 h 4.66896 c 2.03391,0 2.60058,0.566897 2.60058,2.834483 v 10.971092 c 0,0.566897 0.26724,0.833621 0.8339,0.833621 h 2.73449 c 0.56666,0 0.83391,-0.266724 0.83391,-0.833621 V 26.26477 c 0,-5.035345 -1.80115,-7.402988 -6.90288,-7.402988 z m -21.30804,18.740862 h -5.53564 c -5.16839,0 -6.90287,-2.367587 -6.90287,-7.402931 v -4.035 c 0,-4.935288 1.80115,-7.302931 6.90287,-7.302931 h 5.53564 c 4.70172,0 6.6362,1.967471 6.86954,6.602643 0.0333,0.566897 -0.23334,0.867012 -0.80058,0.867012 h -2.73448 c -0.56667,0 -0.83334,-0.300115 -0.83334,-0.867012 -0.1,-2.000804 -0.6339,-2.500977 -2.60114,-2.500977 h -5.33564 c -2.0339,0 -2.60115,0.533563 -2.60115,2.801092 v 4.902012 c 0,2.267586 0.56725,2.834482 2.60115,2.834482 h 5.33564 c 2.00057,0 2.50114,-0.533563 2.60114,-2.567701 0,-0.566896 0.26667,-0.867011 0.83334,-0.867011 h 2.73448 c 0.56724,0 0.83391,0.300115 0.80058,0.867011 -0.16667,4.801897 -2.20115,6.669311 -6.86954,6.669311 z M 95.013218,18.861782 h 2.534483 c 5.101729,0 6.902869,2.367643 6.902869,7.402988 v 10.504253 c 0,0.566897 -0.26666,0.833621 -0.8339,0.833621 h -2.73449 c -0.56666,0 -0.83333,-0.266724 -0.83333,-0.833621 V 25.797931 c 0,-2.267586 -0.567241,-2.834483 -2.601149,-2.834483 H 92.77931 c -1.901149,0 -2.601149,0.566897 -2.601149,2.834483 v 10.971092 c 0,0.566897 -0.266667,0.833621 -0.833908,0.833621 H 86.60977 c -0.566667,0 -0.833333,-0.266724 -0.833333,-0.833621 V 19.69546 c 0,-0.566897 0.266666,-0.833678 0.833333,-0.833678 h 2.734483 c 0.567241,0 0.833908,0.266781 0.833908,0.833678 v 1.33385 c 0.833333,-1.433908 2.433908,-2.167528 4.835057,-2.167528 z M 56.572184,37.602644 h 5.535862 c 4.668391,0 6.702299,-1.867414 6.868965,-6.669311 0.03333,-0.566896 -0.233333,-0.867011 -0.8,-0.867011 h -2.734482 c -0.567242,0 -0.833908,0.300115 -0.833908,0.867011 -0.1,2.034138 -0.6,2.567701 -2.60115,2.567701 h -5.33523 c -2.034138,0 -2.601034,-0.566896 -2.601034,-2.834482 V 25.76454 c 0,-2.267529 0.566896,-2.801092 2.601034,-2.801092 h 5.33523 c 1.967816,0 2.50115,0.500173 2.60115,2.500977 0,0.566897 0.266666,0.867012 0.833908,0.867012 h 2.734482 c 0.566667,0 0.833334,-0.300115 0.8,-0.867012 -0.233333,-4.635172 -2.167241,-6.602643 -6.868965,-6.602643 h -5.535862 c -5.102012,0 -6.902759,2.367643 -6.902759,7.302931 v 4.035 c 0,5.035344 1.734023,7.402931 6.902759,7.402931 z"
     fill="#07004d"
     id="path134"
     style="stroke-width:0.574713" />
</svg>
