<?xml version="1.0" encoding="UTF-8" standalone="no"?>
<svg
   id="Vrstva_1"
   data-name="Vrstva 1"
   version="1.1"
   viewBox="0 0 238.67419 72"
   sodipodi:docname="logo.svg"
   width="238.67419"
   height="72"
   inkscape:export-filename="theme-preview.png"
   inkscape:export-xdpi="96"
   inkscape:export-ydpi="96"
   inkscape:version="1.2 (dc2aeda, 2022-05-15)"
   xmlns:inkscape="http://www.inkscape.org/namespaces/inkscape"
   xmlns:sodipodi="http://sodipodi.sourceforge.net/DTD/sodipodi-0.dtd"
   xmlns="http://www.w3.org/2000/svg"
   xmlns:svg="http://www.w3.org/2000/svg">
  <sodipodi:namedview
     id="namedview288"
     pagecolor="#505050"
     bordercolor="#eeeeee"
     borderopacity="1"
     inkscape:showpageshadow="0"
     inkscape:pageopacity="0"
     inkscape:pagecheckerboard="0"
     inkscape:deskcolor="#505050"
     showgrid="false"
     inkscape:zoom="1.0229167"
     inkscape:cx="478.5336"
     inkscape:cy="146.15071"
     inkscape:window-width="2560"
     inkscape:window-height="1387"
     inkscape:window-x="0"
     inkscape:window-y="25"
     inkscape:window-maximized="1"
     inkscape:current-layer="Vrstva_1" />
  <defs
     id="defs259">
    <style
       id="style257">
      .cls-1 {
        fill: #231556;
      }

      .cls-1, .cls-2 {
        stroke-width: 0px;
      }

      .cls-2 {
        fill: #e5004d;
      }
    </style>
  </defs>
  <g
     inkscape:groupmode="layer"
     id="layer1"
     inkscape:label="Layer 1"
     style="fill:#ffffff;fill-opacity:1"
     transform="matrix(0.69957114,0,0,1.0989554,15.764384,35.666089)" />
  <g
     id="g411"
     transform="matrix(0.47734912,0,0,0.47734912,-42.160307,-18.995261)">
    <g
       id="g271"
       transform="matrix(0.61632077,0,0,0.61632077,-253.51157,-217.30225)">
      <path
         class="cls-2"
         d="m 650.1,652.6 h -3.7 c -8,0 -15.6,-1.2 -23,-3.4 -1.5,-0.3 -2.8,0 -3.4,1.5 v 0 c -0.6,1.5 0,3.4 1.8,3.7 8.3,2.4 16.5,3.7 25.1,3.4 1.5,0 2.8,-1.2 2.8,-2.4 v 0 -3.1 l 0.3,0.3 z"
         id="path261" />
      <path
         class="cls-2"
         d="m 736.2,569.7 c 0,-3.1 -2.8,-5.5 -5.8,-5.2 v 0 c 3.4,42.9 -30.6,84.2 -74.7,87.6 v 3.1 c 0,1.5 1.2,2.8 2.4,2.4 44.7,-4.6 79,-44.7 78.4,-88.2 z"
         id="path263" />
      <path
         class="cls-2"
         d="m 729.7,560.2 h 2.8 c 1.5,0 0,0 0,0 1.5,0 2.4,-1.5 2.4,-3.1 0,-3.1 -0.6,-4.6 -1.2,-7 -0.3,-1.5 -1.8,-2.1 -3.1,-2.1 -1.3,0 0,0 0,0 -1.5,0 -2.8,1.5 -2.4,3.4 0.6,3.4 1.5,9.2 1.5,9.2 v -0.3 z"
         id="path265" />
      <path
         class="cls-2"
         d="m 642.8,640.4 c -1.5,0 -2.8,0.9 -3.1,2.4 -0.3,1.5 0,0 0,0 0,1.5 0.9,2.8 2.4,3.1 3.7,0.3 7.7,0.3 7.7,0.3 v -2.8 c 0,-1.5 0,0 0,0 0,-1.5 -1.2,-2.8 -3.1,-3.1 -2.4,0 -1.8,0 -4.6,-0.3 l 0.6,0.3 z"
         id="path267" />
      <path
         class="cls-2"
         d="m 724.2,564.8 c -0.9,0 -2.1,0 -3.1,0.3 -1.5,0 -2.4,1.5 -2.4,2.8 v 4.6 c 0,0 -9.2,-1.5 -9.8,-1.8 -11.6,-2.8 -26,-4.3 -28.8,-15.9 -1.2,-9.5 -2.1,-14.7 -5.8,-22 -3.7,-7.3 -2.1,-3.1 0,-6.1 2.1,-3.4 9.8,-15.6 10.1,-15.9 0.6,-1.2 -1.2,-1.2 0.6,-3.7 1.8,-2.5 2.1,-2.4 4.6,-2.1 l 5.5,-8.3 c 0.9,0.3 1.8,0.9 2.4,1.5 11,8.6 6.1,30.6 6.1,30.6 l 21.1,11 c 1.5,-4.3 2.8,-7.7 3.7,-12.6 6.4,-30.3 -1.2,-53 -24.5,-74.1 -7,-5.8 -12.2,-9.2 -21.1,-14.7 -1.8,-1.2 -4.3,-0.9 -6.7,1.8 -2.4,2.7 -1.8,0 -2.1,-1.8 -0.6,-3.7 -1.5,-5.8 -4.3,-8.9 -3.1,-3.1 -6.4,-5.8 -9.5,-8.6 -3.7,-3.1 -8.3,-4 -13.2,-3.7 -19.3,1.8 -35.2,26.9 -24.2,44.1 0.6,0.9 1.5,1.8 2.4,2.4 7.3,4.3 11.9,6.4 15.9,8.9 2.8,1.5 5.2,0.9 7.7,0.6 l 3.1,-0.9 c -0.9,1.5 -3.7,5.2 -4.6,7 -0.9,1.8 -2.4,2.8 0,4.6 0.9,0.6 0,1.8 -0.6,2.4 -3.7,6.1 -10.7,16.8 -14.4,23 -0.3,0.6 -0.6,0.9 -1.5,0.6 -7,-1.8 -11.6,-1.8 -16.2,2.1 -2.4,2.1 -2.8,7 -2.8,7 -3.4,0 -6.1,-0.3 -9.2,0.6 -11.9,3.7 -12.2,10.1 -11,17.5 0,0.9 0,1.5 -0.9,2.1 -9.2,6.4 -7.3,11.3 -6.7,17.1 0,0.9 0,1.5 -0.6,2.1 -4.3,6.1 -3.1,11.3 3.4,22.4 q 0.3,0.6 0,1.2 c -0.6,0.9 -22.7,36.1 -29.7,47.8 -4.3,7 -3.1,19 4.6,25.7 9.2,8 26,9.2 32.1,-0.6 3.4,-5.5 26.3,-41.6 30.9,-49.6 q 0.6,-0.9 1.8,-0.6 c 4.3,0.9 6.1,2.4 11.9,2.8 5.8,0.4 9.8,-1.2 12.6,0 3.1,1.5 5.8,3.4 12.6,10.7 4.6,5.2 11,16.2 11,16.2 0,0 -9.5,4 -15.6,5.2 -1.8,0 -3.1,1.5 -3.1,3.4 v 2.8 c 40.7,-4 71.3,-41.6 68.6,-81.1 h -0.3 z M 631.5,461.3 c -5.2,-1.8 -7,-6.7 -7,-12.2 0,-11 9.8,-22.7 20.5,-25.1 h 1.2 c 6.1,-0.9 11.6,3.7 12.2,9.8 0.6,7 -3.4,14.4 -7.7,18.7 -5.8,6.1 -14.7,10.7 -19.6,8.9 h 0.3 z m 7.6,4.9 c 0.9,0 6.4,-1.8 12.2,-6.4 5.8,-4.6 8.9,-10.1 9.2,-11 1.8,-3.7 3.4,-9.5 3.4,-16.2 1.8,1.8 3.4,5.2 3.4,7.7 0,2.5 -0.9,3.1 0.6,4.3 1.8,1.5 4.3,4 6.4,1.8 2.1,-2.2 4.6,-4 8.6,-1.5 6.4,4 10.7,7.3 16.5,12.9 5.8,5.5 11,10.7 15.3,17.8 8.6,13.8 10.7,28.5 8.6,44.1 -0.3,3.4 -0.9,6.4 -1.5,9.5 -0.6,2.8 -1.8,3.4 -4.3,2.1 -1.8,-0.9 -3.1,-1.5 -5.2,-2.8 l -3.1,-1.5 c 0,0 4.9,-27.9 -12.6,-36.1 -17.5,-8.3 -4.3,-1.2 -5.8,1.2 -1.5,2.4 -3.7,6.4 -3.7,6.4 0,0 -1.8,3.7 -4.3,2.8 h -0.9 c -3.4,5.5 -14.4,23 -14.4,23 0,0 -0.3,-0.6 -2.1,-1.5 -1.8,-0.9 -3.4,-0.9 -3.4,-0.9 0,0 11,-17.8 14.4,-23.6 1.2,-1.5 2.1,-4 4,-4.6 h 1.5 c 1.2,0.3 1.5,0 1.8,-0.9 1.5,-2.4 0.3,-0.6 2.1,-3.1 2.8,-5.2 8,-7.7 13.5,-4.6 12.2,6.7 16.8,17.5 16.8,30.9 0,13.4 0,3.7 -0.3,5.8 0,0.6 -0.3,1.5 0.6,1.5 0.9,0 0.9,-0.9 1.2,-1.5 3.7,-20.2 -0.9,-42.6 -16.8,-56.6 -3.4,-3.1 -6.1,-5.8 -9.5,-8.9 -0.9,-0.9 -11.3,-9.8 -12.2,-8.9 -4.3,5.2 -4.9,7.7 -11,3.1 -1.8,-1.5 -2.4,-1.2 -3.7,1.2 -4.9,8.6 -11.6,12.9 -11.6,13.2 -4.9,3.4 -9.5,2.4 -13.5,0.3 l -0.3,1.2 z m -52.4,104.4 c -0.6,-4 -0.6,-8.9 3.1,-11 q 0.6,0 0.3,-0.6 c -2.8,-6.4 0,-14.4 6.7,-17.5 7.7,3.4 32.8,14.1 33.7,14.7 4.6,2.8 4.6,5.8 3.1,8.6 -1.2,2.4 -5.8,2.4 -10.4,1.5 -7,-1.2 -18.4,-7.3 -24.8,-9.2 -2.1,-0.6 -4,0.6 -4.9,2.4 0,0 2.1,0.6 3.1,0.9 4.9,1.2 15.9,7 20.5,8.6 1.2,0.3 4.3,2.4 4.6,3.7 0.6,3.1 -1.8,5.2 -4,6.1 -2.8,0.9 -5.5,0 -7.3,-0.3 -3.7,-0.3 -11.3,-4.9 -14.7,-6.1 -2.1,-0.9 -4.3,-0.9 -4,3.1 0,0.9 -2.1,3.4 -2.1,3.4 0,0 -0.6,-0.6 -1.2,-2.1 -0.9,-2.1 -1.5,-4 -1.8,-5.8 l 0.3,-0.3 z m 3.7,78 c -4,6.7 -11.9,8.6 -18.1,6.4 -9.2,-3.1 -15.6,-13.5 -10.7,-21.1 5.5,-9.2 26.6,-42.6 32.1,-51.4 0.9,-1.2 3.1,-4.6 8,-2.4 5.2,2.1 11,1.8 13.5,1.2 l -33.7,53.6 c -2.1,3.4 -5.2,6.4 -8.9,8 -3.7,1.6 -1.8,0.6 -2.8,0.6 h -3.7 c 0,0.3 1.2,2.4 3.1,4.3 1.9,1.9 4,2.8 7.7,3.1 3.7,0.3 2.1,0 3.1,-0.3 1.8,-0.6 3.4,-1.8 4.3,-3.4 l 45.9,-73.5 c 7.7,0 11.3,-6.7 11.3,-6.7 l -51.4,82.1 0.3,-0.3 z m 35.8,-98.5 c -5.8,-2.4 -26.3,-11.3 -26.3,-11.3 0,0 -3.1,-1.5 -3.7,-1.8 -1.2,-5.5 0.3,-12.2 11.3,-13.2 1.5,0 3.1,0 4.6,0.6 4.3,3.1 17.1,13.8 21.1,17.1 0.9,0.9 4.9,4.6 4,7 -1.5,5.5 -4.9,4.3 -11.3,1.5 h 0.3 z m 14.7,-12.6 c -1.8,4.9 -5.5,0.9 -8,-1.2 -3.1,-2.4 -13.5,-11 -16.5,-13.5 -0.3,0 -0.6,-0.6 -0.9,-0.6 0,-3.4 0.6,-5.8 3.1,-7.7 2.8,-1.8 8,-0.9 10.7,1.2 4,3.1 7,6.7 9.2,10.1 2.2,3.4 3.7,8.3 2.8,11.3 l -0.3,0.3 z m -4.2,-19.6 -1.5,-1.5 18.4,-29.4 c 1.2,-2.1 1.2,-2.4 0,-3.4 -1.2,-0.9 -1.2,-1.8 -0.9,-2.8 0,-0.3 5.8,-9.5 7.3,-11.9 0.3,-0.6 0.6,-0.9 1.2,-1.2 2.8,-1.2 5.5,-0.6 8,0.9 3.7,2.8 5.8,5.8 1.5,13.5 0,0 -0.6,1.8 -2.4,4.9 0,0.3 -1.2,2.8 -4.6,1.5 -3.4,-1.3 -4.9,-2.1 -4.9,-2.1 l -2.4,4.6 c 0,0 2.1,0.9 4.9,2.4 3.1,1.5 7.3,3.1 4.9,6.7 -3.7,6.1 -9.8,15.9 -13.8,22 -0.9,1.2 -5.8,8.9 -5.8,8.9 0,0 -1.2,-3.1 -3.1,-5.5 -2.4,-3.7 -4.3,-5.2 -6.4,-7.7 h -0.3 z m 15.6,65.5 c -3.7,-3.7 -3.4,-8.6 -2.4,-10.4 1,-1.8 5.5,-3.4 11,-3.1 6.1,0 10.1,-3.4 9.8,-10.1 0,-1.8 -0.6,-14.7 -3.4,-20.2 -6.1,-12.6 -6.1,5.5 -9.2,9.8 -3.1,4.3 -6.7,4.9 -9.5,4.6 -3.1,0 -5.8,-2.1 -7,-3.1 -1.2,-1 -0.6,-0.9 0,-1.2 2.8,-4 15.9,-21.7 16.8,-21.7 8,-0.9 9.5,2.1 12.9,9.2 2.1,4.3 3.7,9.2 4.3,14.1 0.6,4.3 1.2,9.8 4.3,12.9 3.1,3.1 3.7,3.7 7.7,5.2 8.6,3.7 22.7,7.7 31.2,10.1 -0.3,2.8 -0.6,4.9 -1.5,7.7 -3.1,-1.5 -9.5,-4 -9.5,-4 0,0 -17.5,-8 -29.4,-9.2 -2.4,0 -6.4,0 -6.4,0.3 -0.3,2.4 2.1,3.4 4,5.2 1.2,1.2 -0.9,1.8 -2.1,2.4 -4.3,1.5 -17.5,4.9 -20.8,1.5 h -0.6 z m 30,47.5 c -12.6,-17.8 -25.1,-26.6 -25.1,-26.6 0,0 23.6,14.1 30.3,23.9 0,0 -1.8,1.5 -5.2,2.8 z m 5.5,-47.2 c 0,0 2.8,-1.5 8.6,0 10.1,3.1 18.1,8.9 18.1,8.9 -2.8,8.6 -6.1,12.9 -6.1,12.9 0,0 -4.6,-9.8 -13.2,-15.6 -8.6,-5.8 -7.3,-6.1 -7.3,-6.1 v 0 z"
         id="path269" />
    </g>
    <g
       id="g285"
       transform="matrix(0.61632077,0,0,0.61632077,-253.51157,-217.30225)">
      <path
         class="cls-1"
         d="m 856.5,617.1 h -19.9 v -44.7 h -45.3 v 44.7 h -19.9 v -101 h 19.9 v 39.5 h 45.3 v -39.5 h 19.9 z"
         id="path273" />
      <path
         class="cls-1"
         d="m 904.6,516.1 h 26.3 l 36.1,101 h -20.5 l -6.7,-20.2 h -44.1 l -7,20.2 h -20.2 z m 29.4,64.3 -4,-11.6 c -4.3,-12.9 -8.9,-25.4 -12.2,-37.4 -3.4,11.9 -8,24.8 -12.2,37.7 l -4,11.3 h 32.8 -0.3 z"
         id="path275" />
      <path
         class="cls-1"
         d="M 1064.1,617.1 H 1043 l -25.7,-41 c -7,-11.3 -14.1,-22.7 -19.9,-33.1 0.6,11.9 0.9,24.8 0.9,39.2 v 34.9 H 979 v -101 h 21.7 l 27.3,43.5 c 6.1,10.1 12.2,19.9 17.8,29.7 -0.6,-10.7 -0.6,-22.7 -0.6,-36.4 v -36.7 h 19.3 v 101 h -0.3 z"
         id="path277" />
      <path
         class="cls-1"
         d="m 1172.2,566.6 c 0,29.4 -16.8,50.5 -45.9,50.5 h -41 v -101 h 41 c 29.1,0 45.9,21.1 45.9,50.5 z m -49,33.7 c 16.5,0 28.5,-10.7 28.5,-33.7 0,-23 -11.9,-33.7 -28.5,-33.7 h -18.4 v 67.7 h 18.4 z"
         id="path279" />
      <path
         class="cls-1"
         d="m 1258.5,532.6 h -51.1 v 23.6 h 47.8 V 573 h -47.8 v 26.9 h 52.7 v 16.8 h -72.6 v -101 h 71 v 16.8 z"
         id="path281" />
      <path
         class="cls-1"
         d="m 1362,516.1 -33.1,47.5 37,53.6 h -22.4 l -26.6,-39.2 -26.6,39.2 h -22 l 36.7,-53.6 -32.8,-47.5 h 22.7 l 22.7,33.4 22.7,-33.4 h 22.4 -0.6 z"
         id="path283" />
    </g>
  </g>
</svg>
